<svg xmlns="http://www.w3.org/2000/svg" version="1.1" x="0px" y="0px" viewBox="0 0 100 125" xml:space="preserve">
  <path fill="#ffffff" d="M64.803,74.67c-0.98-1.278-7.545-9.942-7.901-10.349
           c-13.58-17.867-7.955-15.804,4.359-30.901  
           c0,0-19.013-26.224-19.694-27.125c-0.681-0.901-0.86-1.063-1.348-0.708
           c-0.488,0.354,0.029-0.042-0.689,0.5  
           c-0.718,0.542-0.59,0.445,0,1.25c15.479,21.868,0.753,31.257-3.728,35.5
           c5.457,6.805,14.635,18.344,17.25,21.708  
           c-17.729-7.792-28.104,16.146-2.542,30.042
           c1.458-0.667,0,0,1.458-0.667C42.261,84.691,39.846,67.136,64.803,74.67z"/>
</svg>
